<svg xmlns="http://www.w3.org/2000/svg" xmlns:xlink="http://www.w3.org/1999/xlink" width="576.977" height="245.208" viewBox="0 0 576.977 245.208"><defs><style>.a{fill:#3dd4f1;opacity:0.7;}.b{fill:#958eec;opacity:0.8;}.c{fill:url(#a);}.d{font-size:70px;font-family:YuGothicUI-Regular, Yu Gothic UI;}.e{fill:rgba(255,255,255,0.82);font-size:80px;font-family:SegoeUI, Segoe UI;}.f{filter:url(#b);}</style><linearGradient id="a" x1="0.5" x2="0.5" y2="1" gradientUnits="objectBoundingBox"><stop offset="0" stop-color="#3dd7f3"/><stop offset="1" stop-color="#958ceb"/></linearGradient><filter id="b" x="127.977" y="39.208" width="449" height="139" filterUnits="userSpaceOnUse"><feOffset dy="2" input="SourceAlpha"/><feGaussianBlur stdDeviation="1" result="c"/><feFlood flood-color="#51c6f1" flood-opacity="0.42"/><feComposite operator="in" in2="c"/><feComposite in="SourceGraphic"/></filter></defs><g transform="translate(2186.977 -1895.792)"><g transform="translate(-2401 1541.277)"><g transform="translate(101 182.723)"><g transform="translate(119 169)"><g transform="translate(0 2)"><path class="a" d="M9.633.6,95.7,8.184a12.332,12.332,0,0,1,10.78,10.841L110.8,68.446a8.07,8.07,0,0,1-9.033,9.094L15.708,69.956A12.332,12.332,0,0,1,4.929,59.115L.6,9.693A8.07,8.07,0,0,1,9.633.6Z" transform="matrix(0.719, 0.695, -0.695, 0.719, 47.511, 0)"/><g transform="translate(0 16.265)"><g transform="translate(0 0)"><path class="b" d="M9.271.514,91.8,7.087c5.247.418,9.839,5.4,10.257,11.13l3.751,51.437c.418,5.729-3.5,10.035-8.744,9.617L14.536,72.7C9.289,72.28,4.7,67.3,4.279,61.568L.528,10.131C.11,4.4,4.025.1,9.271.514Z" transform="translate(33.739 0) rotate(30)"/></g></g><g transform="translate(6.103 43.834)"><path class="c" d="M9.038.241,88.42,3.3c5.047.194,9.3,5.159,9.49,11.088l1.749,53.235c.195,5.93-3.738,10.579-8.785,10.384L11.492,74.949C6.445,74.754,2.2,69.79,2,63.86L.253,10.625C.058,4.7,3.991.046,9.038.241Z" transform="matrix(0.978, 0.208, -0.208, 0.978, 13.969, 0)"/></g></g><g class="f" transform="matrix(1, 0, 0, 1, -5.98, 2.79)"><text class="d" transform="translate(130.98 40.21)"><tspan x="0" y="76">Karte</tspan></text></g><text class="e" transform="matrix(0.978, 0.208, -0.208, 0.978, 52.935, 27.343)"><tspan x="0" y="86">e </tspan></text></g></g></g></g></svg>